# xmcd
#
# Track frame offsets:
#	150
#	17616
#	32331
#	45326
#	58789
#	67009
#	83799
#	93099
#	107185
#	110981
#	119536
#	127424
#	142589
#	156126
#	165646
#	178306
#	190123
#	199259
#	209802
#	220853
#	231770
#	240648
#	252028
#	261902
#	273753
#	285688
#	296600
#	307093
#	316861
#	327701
#	337693
#
# Disc length: 4633 seconds
#
# Revision: 0
# Processed by: cddbd v1.5.2PL0 Copyright (c) Steve Scherf et al.
# Submitted via: EasyCDDAExtractor 15.3.0.1
#
DISCID=d312171f
DTITLE=Wills Bob - Faded Love CD 9
DYEAR=1900
DGENRE=
TTITLE0=Big Taters In The Sandy Land (1965)
TTITLE1=Mayflower Waltz (1965)
TTITLE2=Billy In The Low Ground (1965)
TTITLE3=Beaumont Rag (1965)
TTITLE4=Faded Love (1965)
TTITLE5=Diane Waltz (1965)
TTITLE6=Done Gone (1965)
TTITLE7=Put Your Little Foot (1965)
TTITLE8=Bob's First Fiddle Tune (1965)
TTITLE9=Bob's Schottische (1965)
TTITLE10=Gone Indian (1965)
TTITLE11=No Disappointments In Heaven (1965)
TTITLE12=Faded Love (1965 Uniss,)
TTITLE13=Wills Junction (1965 Uniss.)
TTITLE14=You'll Never Walk Out Of My Heart (1965 Uniss.)
TTITLE15=Betty's Waltz (1965)
TTITLE16=Old) San Antonio Rose (1965)
TTITLE17=She Won't Let Me Forget Her (1965)
TTITLE18=I Just Can't Take It Anymore (1966)
TTITLE19=She's Killing Me (1965)
TTITLE20=If No News Is Good News (1966)
TTITLE21=You're The Only Star In My Blue Heaven (1966)
TTITLE22=Big Ball In Cowtown (1966)
TTITLE23=Where Do I Got From Here (1966)
TTITLE24=Gone Indian (1966)
TTITLE25=Pinto Beans (1966)
TTITLE26=Guess I'll Move On Down The Line (1966)
TTITLE27=My Adobe Hacienda (1966)
TTITLE28=What's Fort Worth (1966)
TTITLE29=Deep In The Heart Of Texas (1966)
TTITLE30=Kansas City (1966)
EXTD=
EXTT0=
EXTT1=
EXTT2=
EXTT3=
EXTT4=
EXTT5=
EXTT6=
EXTT7=
EXTT8=
EXTT9=
EXTT10=
EXTT11=
EXTT12=
EXTT13=
EXTT14=
EXTT15=
EXTT16=
EXTT17=
EXTT18=
EXTT19=
EXTT20=
EXTT21=
EXTT22=
EXTT23=
EXTT24=
EXTT25=
EXTT26=
EXTT27=
EXTT28=
EXTT29=
EXTT30=
PLAYORDER=
